<svg width="20" height="20" viewBox="0 0 20 20" fill="none" xmlns="http://www.w3.org/2000/svg">
<path fill-rule="evenodd" clip-rule="evenodd" d="M17.2558 14.9282C17.9634 14.8411 19.0878 14.8949 19.3091 15.1836H19.309C19.4772 15.4034 19.3035 16.3913 19.0185 17.0995C18.7316 17.8038 18.304 18.3015 18.0678 18.4937C17.8283 18.6859 17.6521 18.6115 17.7796 18.3228C17.9116 18.0342 18.6341 16.2443 18.3478 15.8685C18.0825 15.5212 16.8793 15.647 16.3203 15.7054C16.2788 15.7097 16.2408 15.7137 16.207 15.7171C16.0889 15.7277 15.9937 15.7383 15.9167 15.7469C15.676 15.7738 15.6117 15.781 15.5758 15.7071C15.4833 15.4466 16.5471 15.0127 17.2558 14.9282ZM0.542884 15.2176C3.82336 17.221 8.90123 20.3221 16.9946 16.4639H16.9945C17.3433 16.3181 17.5871 16.5616 17.242 17.003C16.8945 17.4481 14.1169 20 9.44793 20C4.78216 20 1.20765 16.807 0.11693 15.4823C-0.181827 15.1385 0.162507 14.9833 0.365097 15.1091C0.423766 15.1449 0.483026 15.1811 0.542884 15.2176Z" fill="#FF9900"/>
<path fill-rule="evenodd" clip-rule="evenodd" d="M13.9677 1.28838C12.9505 0.335587 11.2919 0 10.0193 0C7.50788 0 4.70301 0.937855 4.11231 4.04887C4.05287 4.38014 4.29062 4.55498 4.50606 4.60346L7.06957 4.87879C7.30732 4.86765 7.48188 4.63319 7.52652 4.39496C7.74571 3.32321 8.6448 2.80596 9.65157 2.80596C10.194 2.80596 10.8107 3.00693 11.134 3.49444C11.4356 3.93994 11.4574 4.52057 11.4555 5.06195L11.4553 5.10149L11.4549 5.1605L11.4541 5.27728L11.4538 5.31578L11.4536 5.35404L11.4535 5.41095V5.75335C11.2851 5.77258 11.111 5.79105 10.9326 5.80953L10.3858 5.86579C9.06925 6.00253 7.60484 6.17901 6.48623 6.67253C4.83309 7.38698 3.67017 8.84954 3.67017 10.9967C3.67017 13.7468 5.40147 15.1201 7.62315 15.1201C9.50301 15.1201 10.5284 14.6772 11.9773 13.1961C12.0015 13.2309 12.0248 13.2648 12.0475 13.2979L12.0743 13.3373L12.0875 13.3566L12.1135 13.3949L12.1389 13.4325L12.248 13.5942L12.2714 13.6287L12.283 13.6458L12.3061 13.6796C12.5902 14.0945 12.8443 14.4203 13.4931 14.96C13.688 15.0632 13.9376 15.0533 14.112 14.9015L14.1172 14.8968L14.1246 14.9043L14.2069 14.8313L14.2769 14.7692L14.6085 14.4771L15.0211 14.1162L15.5527 13.6555L15.6379 13.5822L15.7007 13.5283L15.862 13.3905L15.9007 13.3575L15.9575 13.3093L15.9943 13.2781L16.048 13.2328L16.0827 13.2035L16.1165 13.1752L16.1494 13.1477C16.3649 12.9692 16.3277 12.6825 16.1568 12.4444C16.1326 12.4109 16.1084 12.3777 16.0842 12.3448L16.0551 12.3053L15.9537 12.1682L15.9249 12.1292C15.5229 11.5828 15.1611 11.0329 15.1611 9.99197V5.86866C15.1611 5.79884 15.1613 5.72926 15.1616 5.65991L15.1636 5.29817C15.1711 3.77532 15.1424 2.38719 13.9983 1.31744L13.9677 1.28838ZM7.52652 10.539C7.52652 8.28381 9.54381 7.8745 11.4535 7.8745L11.4537 8.72193L11.4537 8.78186C11.4526 9.66821 11.4223 10.4388 10.9594 11.2535C10.5395 11.9978 9.87452 12.4555 9.1315 12.4555C8.11722 12.4555 7.52652 11.6815 7.52652 10.539Z" fill="#131921"/>
</svg>
