<svg width="18" height="21" viewBox="0 0 18 21" fill="none" xmlns="http://www.w3.org/2000/svg">
<path fill-rule="evenodd" clip-rule="evenodd" d="M13.3463 0.841928C13.3463 1.89516 12.8812 2.94838 12.2246 3.70832C11.5268 4.5483 10.3231 5.17489 9.36545 5.17502C9.25604 5.17502 9.1465 5.16159 9.07816 5.1483C9.06452 5.09498 9.0371 4.93491 9.0371 4.77497C9.0371 3.70832 9.59804 2.65509 10.1999 1.98849C10.966 1.12192 12.2382 0.468606 13.3053 0.428589C13.3327 0.548641 13.3463 0.695284 13.3463 0.841928ZM17.1096 7.47642C17.1362 7.45941 17.1545 7.44774 17.163 7.4413C15.7403 5.45489 13.5788 5.40145 12.9768 5.40132C12.057 5.40132 11.2337 5.71938 10.5416 5.98676C10.0396 6.18067 9.60668 6.34792 9.25592 6.34792C8.86895 6.34792 8.42587 6.17341 7.9314 5.97865C7.30714 5.73278 6.60097 5.45464 5.82234 5.45464C3.19593 5.45464 0.52832 7.57451 0.52832 11.5742C0.52832 14.0672 1.51324 16.6937 2.73075 18.3869C3.78402 19.8268 4.70059 21 6.01387 21C6.63666 21 7.09333 20.8111 7.57353 20.6125C8.10592 20.3923 8.66723 20.1601 9.51593 20.1601C10.3729 20.1601 10.8852 20.378 11.3794 20.5883C11.8397 20.7842 12.2842 20.9733 12.9769 20.9733C14.4132 20.9733 15.3572 19.7068 16.26 18.4402C17.2724 17.0004 17.6965 15.5871 17.7101 15.5205C17.628 15.4939 14.8784 14.414 14.8784 11.3609C14.8784 8.90358 16.7515 7.70552 17.1096 7.47642Z" fill="black"/>
</svg>
