<svg width="21" height="20" viewBox="0 0 21 20" fill="none" xmlns="http://www.w3.org/2000/svg">
<path fill-rule="evenodd" clip-rule="evenodd" d="M9.4815 7.54305C9.41008 7.49621 9.33866 7.44938 9.26761 7.40219C8.96785 7.59471 8.66899 7.78812 8.37015 7.98153C7.80792 8.34539 7.24572 8.70924 6.67756 9.06715C6.47258 8.44608 6.03075 7.94736 5.40757 7.75322C4.96789 7.61628 4.42259 7.63415 3.85874 7.65264C3.51874 7.66378 3.17198 7.67515 2.83757 7.65293V11.8354C3.17992 11.8195 3.52006 11.8292 3.84965 11.8385C4.20465 11.8486 4.54742 11.8584 4.86756 11.8354C5.85746 11.7642 6.45572 11.1618 6.70761 10.361C7.13176 10.6385 7.54875 10.9231 7.96574 11.2078C8.40361 11.5067 8.84147 11.8056 9.28761 12.0962C9.5743 11.9127 9.86284 11.7248 10.1518 11.5367C10.7057 11.176 11.2611 10.8143 11.8076 10.4813V11.8354H14.6377V10.5014C14.4703 10.4989 14.299 10.5002 14.1277 10.5015C13.8488 10.5037 13.5699 10.5059 13.3076 10.4914V7.65293H11.8076V9.07722C11.622 9.19592 11.4369 9.31509 11.2517 9.43427C10.7567 9.75292 10.2617 10.0716 9.7576 10.3811C9.71812 10.3553 9.67696 10.3311 9.63579 10.307C9.56338 10.2645 9.49096 10.2221 9.42766 10.1704C9.71126 9.98658 9.99189 9.79977 10.2725 9.61295C10.6551 9.3583 11.0376 9.10365 11.4277 8.85653C11.1483 8.64523 10.8503 8.45265 10.5476 8.26474C9.9249 8.66444 9.29976 9.06164 8.67461 9.45885C8.62228 9.4921 8.56994 9.52535 8.51761 9.5586C8.4666 9.51946 8.41207 9.48384 8.35754 9.44822C8.30308 9.41263 8.24861 9.37705 8.19764 9.33796C8.47696 9.15944 8.75465 8.97927 9.03234 8.79911C9.42259 8.54592 9.81284 8.29273 10.2076 8.0441C9.97559 7.86703 9.72854 7.70504 9.4815 7.54305ZM4.26753 10.5014V8.99696C4.26667 8.98273 4.26594 8.96854 4.27749 8.96686C4.71057 8.93905 5.02265 8.9839 5.2075 9.19754C5.48449 9.51773 5.42128 10.1186 5.10751 10.361C4.91731 10.508 4.67759 10.5055 4.37026 10.5023C4.33682 10.502 4.30259 10.5016 4.26753 10.5014Z" fill="#0083CA"/>
<path d="M16.5276 7.65293H15.0276C15.016 7.65461 15.0167 7.66869 15.0175 7.68286L15.0175 11.8355H17.8476V10.5014H16.5276V7.65293Z" fill="#0083CA"/>
<path fill-rule="evenodd" clip-rule="evenodd" d="M10.4975 0H9.8775C6.88172 0.165422 4.70923 1.32221 3.11753 2.91878C1.53312 4.50796 0.348286 6.65304 0.197503 9.67908C0.199185 9.69076 0.195347 9.69694 0.1875 9.69915V10.3009C0.344966 13.3386 1.52338 15.4615 3.11749 17.0712C4.7116 18.681 6.86219 19.8291 9.8775 20H10.4875C13.5628 19.8482 15.6002 18.6555 17.2575 17.0813C18.8352 15.424 20.0344 13.3871 20.1875 10.3009V9.69915C20.03 6.66152 18.8517 4.53849 17.2575 2.92882C15.6634 1.31914 13.5132 0.170569 10.4975 0ZM6.30752 2.0361C6.79048 1.79655 7.32333 1.59389 7.9175 1.43431C8.51614 1.27351 9.17218 1.18667 9.86763 1.15346C11.2822 1.0859 12.6031 1.40079 13.6177 1.82548C14.6634 2.26319 15.5507 2.86879 16.2877 3.58073C17.777 5.01958 18.9055 6.90639 19.0376 9.68907C19.1074 11.158 18.7846 12.3706 18.3576 13.4203C17.5134 15.4954 15.9903 16.9993 14.0576 17.974C13.0714 18.4713 11.8811 18.781 10.5075 18.8466C9.07551 18.915 7.80384 18.6098 6.77755 18.1746C4.70215 17.2946 3.20252 15.8467 2.21749 13.8817C1.7187 12.8865 1.40295 11.7189 1.33754 10.331C1.2338 8.12948 1.95016 6.45056 2.7775 5.14543C3.62516 3.80834 4.83746 2.76521 6.30752 2.0361Z" fill="#0083CA"/>
</svg>
