<svg width="21" height="16" viewBox="0 0 21 16" fill="none" xmlns="http://www.w3.org/2000/svg">
<path fill-rule="evenodd" clip-rule="evenodd" d="M15.7722 14.8755C19.5392 13.7389 20.0708 11.4374 20.1794 10.069C20.2938 8.67797 19.2534 5.09291 13.1541 2.03374C13.1541 2.03374 6.64322 -1.27989 1.29847 0.552222C1.29847 0.552222 0.961204 0.535258 0.652524 0.987631C0.619024 1.03427 0.585995 1.07938 0.553935 1.12316C0.290578 1.48283 0.0925468 1.75329 0.235233 2.05071C0.39529 2.38433 1.22415 2.53135 1.96156 2.29951C1.96156 2.29951 2.2931 2.07898 1.86438 1.94327C1.65597 1.86966 1.44186 1.81293 1.22415 1.77363C1.22415 1.77363 1.01265 1.7397 1.2413 1.62661C1.45281 1.51917 3.89939 0.738826 8.22092 1.85845C12.5482 2.95545 18.3959 6.4161 18.2245 10.0125C18.053 13.6088 12.3595 13.7672 12.3595 13.7672C12.3595 13.7672 11.1934 13.8237 9.63284 13.5297C9.62752 13.3105 9.621 13.062 9.614 12.795C9.58341 11.629 9.54351 10.1082 9.55282 9.11903C11.7822 9.11903 14.023 9.49789 14.2116 10.0407C14.2116 10.0407 14.3259 10.2895 13.8229 10.5327C13.3599 10.7306 13.0055 10.8889 13.3885 11.0699C13.3885 11.0699 13.9487 11.3243 14.3088 11.2961C14.6518 11.2678 15.5549 10.8663 15.6293 9.89372C15.7321 8.90415 14.5775 8.03334 12.8511 7.72233C11.5249 7.48483 10.8218 7.40001 9.63284 7.45656C9.62141 6.38783 9.4785 5.04768 9.23842 4.73667C9.2213 4.71161 9.20402 4.68606 9.1866 4.66031C8.91314 4.25605 8.60531 3.80098 8.35811 4.38043C8.14089 4.91196 7.95797 6.07117 7.89509 7.60924C6.0773 7.91459 4.05944 8.66666 3.44208 9.41873C2.78471 10.25 3.44208 10.9285 3.50496 10.9907C3.55641 11.0755 4.88259 12.9642 7.76361 14.2761C7.82077 14.7793 7.92367 15.3448 8.12374 15.6558C8.56961 16.3118 9.38133 15.8481 9.48994 15.7406C9.56996 15.6558 9.62713 15.4409 9.65571 14.9377C10.9362 15.26 13.2856 15.6162 15.7722 14.8755ZM3.85937 10.6006C3.85937 10.6006 3.44208 10.1765 4.04801 9.88241C4.59678 9.63361 5.7972 9.30563 7.87794 9.16427C7.87479 9.35753 7.87299 9.5401 7.87119 9.72233C7.86321 10.5318 7.85529 11.3345 7.72931 13.0377C6.39741 12.5684 4.99692 11.8106 3.85937 10.6006Z" fill="#1D1FFF"/>
</svg>
