<svg width="20" height="20" viewBox="0 0 20 20" fill="none" xmlns="http://www.w3.org/2000/svg">
<path d="M19.1875 10.225C19.1875 9.56667 19.1309 8.94167 19.0338 8.33333H9.89376V12.0917H15.127C14.8925 13.325 14.205 14.3667 13.1858 15.075V17.575H16.308C18.136 15.8333 19.1875 13.2667 19.1875 10.225Z" fill="#4285F4"/>
<path d="M9.89376 20C12.5144 20 14.7064 19.1 16.308 17.575L13.1858 15.075C12.3122 15.675 11.2041 16.0417 9.89376 16.0417C7.36204 16.0417 5.21858 14.2833 4.45017 11.9083H1.23092V14.4833C2.82437 17.75 6.10023 20 9.89376 20Z" fill="#34A853"/>
<path d="M4.45017 11.9083C4.24795 11.3083 4.1428 10.6667 4.1428 10C4.1428 9.33333 4.25604 8.69167 4.45017 8.09167V5.51667H1.23092C0.567662 6.86667 0.1875 8.38333 0.1875 10C0.1875 11.6167 0.567662 13.1333 1.23092 14.4833L4.45017 11.9083Z" fill="#FBBC05"/>
<path d="M9.89376 3.95833C11.3254 3.95833 12.6034 4.46667 13.6145 5.45833L16.3808 2.60833C14.7064 0.991667 12.5144 0 9.89376 0C6.10023 0 2.82437 2.25 1.23092 5.51667L4.45017 8.09167C5.21858 5.71667 7.36204 3.95833 9.89376 3.95833Z" fill="#EA4335"/>
</svg>
