<svg width="25" height="10" viewBox="0 0 25 10" fill="none" xmlns="http://www.w3.org/2000/svg">
<path d="M0.1875 1.33333V2H4.72804V1.33333H0.1875Z" fill="#1F70C1"/>
<path d="M0.1875 0.666667H4.72804V0H0.1875V0.666667Z" fill="#1F70C1"/>
<path d="M5.37669 1.33333V2H13.1156C13.0706 1.76408 12.9932 1.54014 12.8882 1.33333H5.37669Z" fill="#1F70C1"/>
<path d="M12.3944 0.666667H5.37669V0H10.7489C11.3849 0 11.9635 0.253104 12.3944 0.666667Z" fill="#1F70C1"/>
<path d="M13.8091 1.33333V2H18.257L18.0717 1.33333H13.8091Z" fill="#1F70C1"/>
<path d="M17.8863 0.666667H13.8091V0H17.701L17.8863 0.666667Z" fill="#1F70C1"/>
<path d="M19.925 1.33333L19.7396 2H24.1875V1.33333H19.925Z" fill="#1F70C1"/>
<path d="M24.1875 0.666667H20.1103L20.2956 0H24.1875V0.666667Z" fill="#1F70C1"/>
<path d="M22.8902 2.66667H19.5543L19.369 3.33333H22.8902V2.66667Z" fill="#1F70C1"/>
<path d="M22.8902 4H20.9443H19.1836L18.9983 4.66667L18.813 4H17.0524H15.1064V4.66667H17.0524V4L17.2686 4.66667H18.9983H20.728L20.9443 4V4.66667H22.8902V4Z" fill="#1F70C1"/>
<path d="M22.8902 5.33333H20.9443V6H22.8902V5.33333Z" fill="#1F70C1"/>
<path d="M22.8902 6.66667H20.9443V7.33333H22.8902V6.66667Z" fill="#1F70C1"/>
<path d="M24.1875 8H20.9443V8.66667H24.1875V8Z" fill="#1F70C1"/>
<path d="M24.1875 9.33333H20.9443V10H24.1875V9.33333Z" fill="#1F70C1"/>
<path d="M0.1875 10H4.72804V9.33333H0.1875V10Z" fill="#1F70C1"/>
<path d="M0.1875 8.66667H4.72804V8H0.1875V8.66667Z" fill="#1F70C1"/>
<path d="M1.4848 7.33333H3.43074V6.66667H1.4848V7.33333Z" fill="#1F70C1"/>
<path d="M1.4848 6H3.43074V5.33333H1.4848V6Z" fill="#1F70C1"/>
<path d="M1.4848 4.66667H3.43074V4H1.4848V4.66667Z" fill="#1F70C1"/>
<path d="M1.4848 3.33333H3.43074V2.66667H1.4848V3.33333Z" fill="#1F70C1"/>
<path d="M6.67399 2.66667V3.33333H8.61993V2.66667H6.67399Z" fill="#1F70C1"/>
<path d="M10.8902 2.66667V3.33333H13.013C13.0884 3.12252 13.1366 2.89872 13.1536 2.66667H10.8902Z" fill="#1F70C1"/>
<path d="M15.1064 2.66667V3.33333H18.6277L18.4423 2.66667H15.1064Z" fill="#1F70C1"/>
<path d="M12.6527 4H6.67399V4.66667H11.8826C12.1839 4.50164 12.4458 4.27336 12.6527 4Z" fill="#1F70C1"/>
<path d="M11.8826 5.33333H6.67399V6H12.6527C12.4458 5.72664 12.1839 5.49836 11.8826 5.33333Z" fill="#1F70C1"/>
<path d="M13.013 6.66667H10.5659V7.33333H13.1536C13.1366 7.10128 13.0884 6.87748 13.013 6.66667Z" fill="#1F70C1"/>
<path d="M15.1064 7.33333V6.66667H17.0524V7.33333H15.1064Z" fill="#1F70C1"/>
<path d="M17.0524 8H13.8091V8.66667H17.0524V8Z" fill="#1F70C1"/>
<path d="M18.5659 8.66667L18.3497 8H19.647L19.4307 8.66667H18.5659Z" fill="#1F70C1"/>
<path d="M17.0524 9.33333H13.8091V10H17.0524V9.33333Z" fill="#1F70C1"/>
<path d="M10.7489 10C11.3849 10 11.9635 9.7469 12.3944 9.33333H5.37669V10H10.7489Z" fill="#1F70C1"/>
<path d="M5.37669 8.66667H12.8882C12.9932 8.45986 13.0706 8.23592 13.1156 8H5.37669V8.66667Z" fill="#1F70C1"/>
<path d="M6.67399 7.33333H8.61993V6.66667H6.67399V7.33333Z" fill="#1F70C1"/>
<path d="M18.7821 9.33333H19.2145L18.9983 10L18.7821 9.33333Z" fill="#1F70C1"/>
<path d="M19.8632 7.33333H18.1334L17.9172 6.66667H20.0794L19.8632 7.33333Z" fill="#1F70C1"/>
<path d="M20.2956 6L20.5118 5.33333H17.4848L17.701 6H20.2956Z" fill="#1F70C1"/>
<path d="M17.0524 6H15.1064V5.33333H17.0524V6Z" fill="#1F70C1"/>
</svg>
