<svg width="21" height="9" viewBox="0 0 21 9" fill="none" xmlns="http://www.w3.org/2000/svg">
<rect x="0.1875" width="1.59297" height="1.59297" fill="#0068B5"/>
<path d="M20.3357 0H18.7398V8.36721H20.3357V0Z" fill="black"/>
<path d="M9.09793 0.432222H10.6938V2.65622H11.6913V3.95115H10.6938L10.6938 6.29202C10.6938 7.02249 11.32 7.06122 11.6746 6.98928V8.40042C9.56031 8.40042 9.09803 7.7531 9.09793 5.94396V0.432222Z" fill="black"/>
<path d="M4.21049 3.33438C4.55475 2.952 5.16124 2.52343 6.00588 2.52343C7.43554 2.52343 8.28336 3.75195 8.28336 4.79786V8.3672H6.75395V5.09669C6.74287 4.67611 6.47467 3.83496 5.49054 3.83496C4.81073 3.83496 4.41437 4.28385 4.21049 4.71651V8.36718H2.6146V2.65622H4.21049V3.33438Z" fill="black"/>
<path d="M0.1875 2.65622H1.7834V8.36718H0.1875V2.65622Z" fill="black"/>
<path fill-rule="evenodd" clip-rule="evenodd" d="M13.5071 6.04295H18.0749V5.51169C18.0748 3.86132 16.7351 2.52343 15.0825 2.52343C13.4299 2.52343 12.0902 3.86134 12.0902 5.51173C12.0902 7.16211 13.4299 8.50002 15.0825 8.50002C16.0523 8.50002 16.9144 8.03862 17.4601 7.32641L16.4039 6.51932C16.099 6.91726 15.6207 7.17189 15.0825 7.17189C14.3505 7.17189 13.7289 6.6993 13.5071 6.04295ZM16.6464 4.94724C16.4151 4.30824 15.8022 3.85156 15.0825 3.85156C14.3629 3.85156 13.75 4.30824 13.5187 4.94724H16.6464Z" fill="black"/>
</svg>
