<svg width="23" height="14" viewBox="0 0 23 14" fill="none" xmlns="http://www.w3.org/2000/svg">
<path d="M22.0764 9.33333C22.0764 3.88889 19.3542 0 15.8542 0C13.132 0 11.1875 3.11111 11.1875 3.11111C9.63197 5.44444 9.63197 9.72222 11.9653 5.05556C11.9653 5.05556 13.9097 1.94444 15.8542 1.94444C18.5764 1.94444 20.0109 6.61111 20.0109 9.33333C20.0109 10.1111 19.7431 11.6667 18.1875 11.6667V14C19.7431 14 22.0764 12.8333 22.0764 9.33333Z" fill="url(#paint0_radial_1217_1460)"/>
<path d="M6.52081 0V2.33333C4.03192 2.64444 2.63192 6.61111 2.63192 9.33333C2.63192 10.1111 3.02081 11.6667 4.18747 11.6667C6.13192 11.6667 8.36782 7.3733 10.4097 4.23312C11.4937 2.56612 12.5726 3.99746 11.7499 5.44444C9.8005 8.87299 7.84849 14 4.18747 14C2.63192 14 0.298584 12.8333 0.298584 9.33333C0.298584 2.33333 4.57636 0 6.52081 0Z" fill="url(#paint1_radial_1217_1460)"/>
<path d="M18.1874 11.6667C15.4652 11.6667 12.3541 0 6.52075 0V2.33333C11.1874 2.33333 13.1318 14 18.1874 14V11.6667Z" fill="#0768E1"/>
<defs>
<radialGradient id="paint0_radial_1217_1460" cx="0" cy="0" r="1" gradientUnits="userSpaceOnUse" gradientTransform="translate(18.1875 13.2222) rotate(-101.31) scale(13.8807 10.7961)">
<stop stop-color="#0768E1"/>
<stop offset="1" stop-color="#0082FB"/>
</radialGradient>
<radialGradient id="paint1_radial_1217_1460" cx="0" cy="0" r="1" gradientUnits="userSpaceOnUse" gradientTransform="translate(6.52081 1.55556) rotate(154.537) scale(9.04532 4.7442)">
<stop stop-color="#0768E1"/>
<stop offset="1" stop-color="#0082FB"/>
</radialGradient>
</defs>
</svg>
