<svg width="12" height="20" viewBox="0 0 12 20" fill="none" xmlns="http://www.w3.org/2000/svg">
<path fill-rule="evenodd" clip-rule="evenodd" d="M1.20233 0.253459C1.1518 0.233554 0.666191 0.0410872 0.596464 0.0133537C0.594576 0.0125975 0.59046 0.0109517 0.585525 0.00899461C0.577474 0.00588098 0.580658 0.00721539 0.576792 0.00568082C0.5684 0.00238927 0.565626 0.00125502 0.562647 7.62939e-05C0.562601 0.149375 0.562533 0.370442 0.56251 0.606855C0.562487 0.909211 0.56251 1.23025 0.56251 1.38978C0.56251 1.69738 0.56251 2.48895 0.56251 2.78146C0.56251 3.34602 0.56251 7.69756 0.56251 8.00183C0.56251 8.29809 0.56251 19.6862 0.56251 20C2.15816 19.8125 2.95615 19.7396 4.57937 19.6673C4.57937 19.3628 4.57937 16.3433 4.57937 15.9029C4.57937 13.3606 4.57937 11.5715 4.57937 10.5853C4.57937 10.1703 4.57937 10.0165 4.57937 9.59073C4.45645 9.25095 3.93633 7.80867 3.80318 7.44547C3.55447 6.75278 2.1389 2.84295 2.02573 2.53016C1.92428 2.24952 1.64171 1.46937 1.5519 1.21971C1.49939 1.07528 1.3623 0.697262 1.28946 0.495654C1.23251 0.338016 1.23765 0.35096 1.20233 0.253459Z" fill="#AF1F1F"/>
<path fill-rule="evenodd" clip-rule="evenodd" d="M11.1727 19.7465C11.2232 19.7663 11.7088 19.9589 11.7786 19.9867C11.7804 19.9873 11.7846 19.9889 11.7895 19.9909C11.7975 19.994 11.7944 19.9927 11.7982 19.9942C11.8066 19.9976 11.8094 19.9987 11.8124 19.9998C11.8124 19.8505 11.8125 19.6295 11.8125 19.3931C11.8125 19.0906 11.8125 18.7697 11.8125 18.6102C11.8125 18.3026 11.8125 17.5109 11.8125 17.2184C11.8125 16.654 11.8125 12.3024 11.8125 11.9981C11.8125 11.7018 11.8125 0.313831 11.8125 0C11.497 0 8.30458 0 7.79565 0C7.79565 0.304624 7.79565 3.65666 7.79565 4.09706C7.79565 6.63923 7.79565 8.42841 7.79565 9.41461C7.79565 9.82965 7.79565 9.98342 7.79565 10.4092C7.91857 10.749 8.43869 12.1912 8.57184 12.5544C8.82055 13.2472 10.2361 17.157 10.3493 17.4697C10.4507 17.7504 10.7333 18.5306 10.8231 18.7801C10.8756 18.9247 11.0127 19.3028 11.0856 19.5043C11.1425 19.6619 11.1374 19.649 11.1727 19.7465Z" fill="#AF1F1F"/>
<path fill-rule="evenodd" clip-rule="evenodd" d="M4.57933 0H0.5625L7.67534 19.6673C9.67421 19.7167 11.8125 20 11.8125 20L4.57933 0Z" fill="#E50914"/>
</svg>
