<svg width="20" height="14" viewBox="0 0 20 14" fill="none" xmlns="http://www.w3.org/2000/svg">
<path d="M7.45675 3.98496V2.78055C7.57453 2.77311 7.69231 2.76568 7.81008 2.76568C11.0784 2.66159 13.2205 5.60571 13.2205 5.60571C13.2205 5.60571 10.9091 8.8472 8.42841 8.8472C8.09717 8.8472 7.77328 8.79516 7.46411 8.69107V5.03324C8.73758 5.18937 8.99522 5.7544 9.7534 7.04059L11.4538 5.59827C11.4538 5.59827 10.2098 3.95522 8.11925 3.95522C7.89842 3.94778 7.67759 3.96265 7.45675 3.98496ZM7.45675 0V1.79918L7.81008 1.77687C12.3519 1.62075 15.3184 5.53879 15.3184 5.53879C15.3184 5.53879 11.9176 9.71705 8.37689 9.71705C8.06772 9.71705 7.76592 9.68731 7.46411 9.63527V10.7505C7.71439 10.7802 7.97203 10.8025 8.2223 10.8025C11.5201 10.8025 13.905 9.09998 16.2164 7.09263C16.5992 7.40488 18.1671 8.15578 18.491 8.4829C16.2974 10.3416 11.1814 11.8359 8.28119 11.8359C8.00147 11.8359 7.73647 11.8211 7.47148 11.7913V13.36H20V0L7.45675 0ZM7.45675 8.69107V9.6427C4.40928 9.09254 3.56275 5.88822 3.56275 5.88822C3.56275 5.88822 5.0276 4.2526 7.45675 3.98496V5.0258H7.44939C6.17593 4.86968 5.17483 6.07409 5.17483 6.07409C5.17483 6.07409 5.74163 8.10374 7.45675 8.69107ZM2.04637 5.7544C2.04637 5.7544 3.84983 3.06306 7.46411 2.78055V1.79918C3.4597 2.1263 0 5.54623 0 5.54623C0 5.54623 1.95804 11.2709 7.45675 11.7913V10.7505C3.42289 10.2449 2.04637 5.7544 2.04637 5.7544Z" fill="#76B900"/>
</svg>
