<svg width="21" height="20" viewBox="0 0 21 20" fill="none" xmlns="http://www.w3.org/2000/svg">
<circle cx="10.1875" cy="10" r="10" fill="white"/>
<path d="M18.1643 4.83719C18.3503 5.4651 18.4666 6.11626 18.4666 6.79068C18.4666 8.99998 17.3736 10.9302 15.7224 12.1628C12.8619 14.279 8.67589 14.279 2.90845 16.093C4.65263 18.186 7.25728 19.5116 10.1875 19.5116C15.4433 19.5116 19.6759 15.2558 19.6759 10.0232C19.6759 8.093 19.1177 6.32556 18.1643 4.83719" fill="#005992"/>
<path d="M15.8853 2.39536C14.3039 1.20931 12.3271 0.488382 10.1876 0.488382C4.93178 0.488382 0.699219 4.7442 0.699219 10C0.699219 12.1163 1.39689 14.0698 2.55968 15.6279C8.93178 13.7675 13.9783 8.76745 15.8853 2.39536Z" fill="#ED1A38"/>
</svg>
