<svg width="21" height="20" viewBox="0 0 21 20" fill="none" xmlns="http://www.w3.org/2000/svg">
<circle cx="10.1875" cy="10" r="10" fill="#1ED760"/>
<path d="M14.7333 14.0164C14.5625 14.2875 14.198 14.3634 13.9133 14.2007C11.6695 12.8995 8.8562 12.6067 5.53038 13.3224C5.21147 13.3875 4.89256 13.2031 4.82422 12.8995C4.75588 12.5959 4.94951 12.2923 5.26842 12.2272C8.90176 11.4356 12.0226 11.7718 14.5283 13.2357C14.813 13.3983 14.9042 13.7453 14.7333 14.0164ZM15.8951 11.5441C15.6787 11.8802 15.2231 11.9778 14.87 11.7826C12.3073 10.2754 8.40061 9.84166 5.37093 10.72C4.97229 10.8284 4.56225 10.6224 4.44836 10.2537C4.33446 9.87419 4.55086 9.48382 4.94951 9.37539C8.412 8.37779 12.7173 8.8549 15.6673 10.579C15.9976 10.7742 16.1115 11.2079 15.8951 11.5441ZM15.9976 8.96334C12.9223 7.22838 7.8539 7.06573 4.91534 7.91152C4.44836 8.05249 3.94721 7.80309 3.79914 7.34766C3.65107 6.90308 3.92443 6.42597 4.39141 6.285C7.76278 5.30909 13.3665 5.50427 16.8974 7.49947C17.3188 7.73803 17.4555 8.25851 17.2049 8.65972C16.9657 9.07177 16.419 9.21274 15.9976 8.96334Z" fill="white"/>
</svg>
