<svg width="20" height="20" viewBox="0 0 20 20" fill="none" xmlns="http://www.w3.org/2000/svg">
<path d="M10.001 20L12.7989 4.19662C15.4659 4.19662 16.3071 4.49033 16.4286 5.68913C16.4286 5.68913 18.2177 5.01919 19.12 3.65857C15.5988 2.01993 12.0608 1.94603 12.0608 1.94603L9.99632 4.47132L10.001 4.471L7.93649 1.94563C7.93649 1.94563 4.39841 2.01961 0.877686 3.65825C1.77924 5.01888 3.56902 5.68881 3.56902 5.68881C3.69119 4.48993 4.53139 4.19623 7.18045 4.19433L10.001 20Z" fill="#E82127"/>
<path d="M10 1.21662C12.8464 1.19476 16.1044 1.65884 19.4396 3.11871C19.8854 2.31293 20 1.95682 20 1.95682C16.3541 0.508194 12.9398 0.0124355 9.99961 0C7.05959 0.0124355 3.64542 0.508273 0 1.95682C0 1.95682 0.162629 2.39547 0.559972 3.11871C3.89457 1.65884 7.15313 1.19476 9.99961 1.21662H10Z" fill="#E82127"/>
</svg>
