<svg width="21" height="20" viewBox="0 0 21 20" fill="none" xmlns="http://www.w3.org/2000/svg">
<path fill-rule="evenodd" clip-rule="evenodd" d="M10.1918 19.9999C15.7137 19.9999 20.1875 15.5261 20.1875 10.0043C20.1875 4.47377 15.7137 0 10.1918 0C4.67008 0 0.1875 4.47377 0.1875 10.0043C0.1875 15.5261 4.67008 19.9999 10.1918 19.9999Z" fill="url(#paint0_linear_1217_1455)"/>
<path fill-rule="evenodd" clip-rule="evenodd" d="M4.84633 15.2795C5.4764 15.9094 6.20899 16.4275 7.01277 16.8118L4.84633 11.8449L3.04097 7.70581C2.80319 8.42796 2.6799 9.20294 2.6799 10.0043C2.6799 12.0563 3.50773 13.9233 4.84633 15.2795ZM15.5375 17.1994C17.7303 15.5701 19.157 12.9544 19.157 10.0043C19.157 7.05412 17.7303 4.43855 15.5375 2.80051C14.0403 1.69088 12.1911 1.03038 10.192 1.03038C8.19286 1.03038 6.34346 1.69088 4.84633 2.80051C2.65348 4.43855 1.22681 7.05412 1.22681 10.0043C1.22681 12.9544 2.65348 15.5701 4.84633 17.1994C6.34346 18.3089 8.19286 18.9695 10.192 18.9695C12.1911 18.9695 14.0403 18.309 15.5375 17.1994ZM15.5375 4.72917C15.8044 4.99634 16.0489 5.28499 16.2685 5.59222L15.5375 7.28309L12.7811 13.6151L11.3544 10.3654H9.02949L7.60281 13.6151L4.84633 7.28309L4.11538 5.59222C4.33494 5.28497 4.57942 4.99631 4.84633 4.72917C5.30367 4.26224 5.8221 3.85935 6.3875 3.53147L8.99426 9.59924H11.3895L13.9963 3.53147C14.5617 3.85935 15.0801 4.26224 15.5375 4.72917ZM15.5375 11.8449L17.3428 7.70581C17.5807 8.42796 17.704 9.20294 17.704 10.0043C17.704 12.0562 16.8762 13.9233 15.5375 15.2795C14.9074 15.9094 14.1749 16.4275 13.3712 16.8118L15.5375 11.8449ZM10.192 12.4262L12.2881 17.2082C11.6072 17.4074 10.9014 17.5082 10.192 17.5076C9.4826 17.5082 8.7768 17.4074 8.09598 17.2082L10.192 12.4262ZM10.192 7.72343L12.3497 2.80932C11.6715 2.59796 10.9405 2.49228 10.192 2.49228C9.4434 2.49228 8.72126 2.59796 8.03434 2.80932L10.192 7.72343Z" fill="white"/>
<defs>
<linearGradient id="paint0_linear_1217_1455" x1="0.190577" y1="0.00307434" x2="20.1843" y2="19.9968" gradientUnits="userSpaceOnUse">
<stop stop-color="#2088FA"/>
<stop offset="1" stop-color="#032B5C"/>
</linearGradient>
</defs>
</svg>
